<svg id="Capa_1" enable-background="new 0 0 512 512" height="512" viewBox="0 0 512 512" width="512" xmlns="http://www.w3.org/2000/svg"><g><path d="m391.17 241.79c0-6.138 0-155.782 0-162.33 0-8.28-6.71-15-15-15h-35.705v-49.46c0-8.284-6.716-15-15-15h-62.837c-8.284 0-15 6.716-15 15v49.46h-104.085v-49.46c0-8.284-6.716-15-15-15h-62.837c-8.284 0-15 6.716-15 15v49.46h-35.706c-8.28 0-15 6.72-15 15v296.71c0 8.29 6.72 15 15 15h226.79c7.33 67.84 64.95 120.83 134.71 120.83 74.71 0 135.5-60.79 135.5-135.5 0-69.76-52.99-127.38-120.83-134.71zm-113.542-211.79h32.837v34.46c-18.198 0-14.239 0-32.837 0zm-196.922 0h32.837v34.46c-18.591 0-14.632 0-32.837 0zm-50.706 64.46h331.17v68.49h-331.17zm0 266.71v-168.22h331.17v48.92c-14.204 1.605-27.746 5.421-40.281 11.085.903-1.929 1.423-4.074 1.423-6.345 0-8.284-6.716-15-15-15h-17c-8.284 0-15 6.716-15 15s6.716 15 15 15h14.424c-34.151 21.407-58.127 57.613-62.866 99.56zm346.5 120.83c-64.51 0-113.741-57.577-104.38-120.83 8.335-57.051 61.605-97.296 119.05-89.14 51.25 7.15 90.83 51.28 90.83 104.47 0 58.17-47.33 105.5-105.5 105.5z"/><path d="m410.89 325.16c-23.543 21.227-15.889 14.326-34.37 30.99l-15.35-14.32-.36-.34c-6.06-5.65-15.55-5.32-21.2.74-5.614 6.022-5.361 15.505.74 21.2l25.76 24.04c5.632 5.249 14.444 5.435 20.28.17l44.59-40.2c6.15-5.55 6.64-15.04 1.09-21.19-5.54-6.15-15.03-6.64-21.18-1.09z"/><path d="m100.463 231.61h-17c-8.284 0-15 6.716-15 15s6.716 15 15 15h17c8.284 0 15-6.716 15-15s-6.716-15-15-15z"/><path d="m100.463 292.507h-17c-8.284 0-15 6.716-15 15s6.716 15 15 15h17c8.284 0 15-6.716 15-15s-6.716-15-15-15z"/><path d="m204.086 231.61h-17c-8.284 0-15 6.716-15 15s6.716 15 15 15h17c8.284 0 15-6.716 15-15s-6.716-15-15-15z"/><path d="m204.086 292.507h-17c-8.284 0-15 6.716-15 15s6.716 15 15 15h17c8.284 0 15-6.716 15-15s-6.716-15-15-15z"/></g></svg>